<svg width="32" height="32" viewBox="0 0 32 32" fill="none" xmlns="http://www.w3.org/2000/svg">
<rect width="32" height="32" rx="16" fill="#9A00B3"/>
<g clip-path="url(#clip0_1_5339)">
<path d="M12.8792 24.1702V16.1702H9.29324C9.09549 16.1701 8.9022 16.1115 8.73779 16.0016C8.57338 15.8917 8.44524 15.7355 8.36957 15.5528C8.2939 15.3701 8.27409 15.1691 8.31266 14.9752C8.35123 14.7812 8.44643 14.603 8.58624 14.4632L15.1722 7.87718C15.3598 7.68971 15.6141 7.5844 15.8792 7.5844C16.1444 7.5844 16.3987 7.68971 16.5862 7.87718L23.1722 14.4632C23.3121 14.603 23.4073 14.7812 23.4458 14.9752C23.4844 15.1691 23.4646 15.3701 23.3889 15.5528C23.3133 15.7355 23.1851 15.8917 23.0207 16.0016C22.8563 16.1115 22.663 16.1701 22.4652 16.1702H18.8792V24.1702C18.8792 24.4354 18.7739 24.6898 18.5864 24.8773C18.3988 25.0648 18.1445 25.1702 17.8792 25.1702H13.8792C13.614 25.1702 13.3597 25.0648 13.1721 24.8773C12.9846 24.6898 12.8792 24.4354 12.8792 24.1702Z" fill="white"/>
</g>
<defs>
<clipPath id="clip0_1_5339">
<rect width="24" height="24" fill="white" transform="translate(3.87915 4.1702)"/>
</clipPath>
</defs>
</svg>
