<svg width="32" height="32" viewBox="0 0 32 32" fill="none" xmlns="http://www.w3.org/2000/svg">
<g clip-path="url(#clip0_1951_178062)">
<rect y="0.00439453" width="32" height="31.9912" rx="15.9956" fill="#DC2626"/>
<path d="M19.5915 16.0004C19.5915 17.9864 17.9817 19.5961 15.9962 19.5961C14.0102 19.5961 12.4004 17.9864 12.4004 16.0004C12.4004 14.0148 14.0102 12.405 15.9962 12.405C17.9817 12.405 19.5915 14.0148 19.5915 16.0004Z" fill="black"/>
<path d="M24.9602 18.138C25.1302 17.4382 25.2164 16.721 25.2164 16.0007C25.2146 14.0022 24.5657 12.0577 23.3661 10.4591C22.1665 8.86054 20.4808 7.69348 18.5622 7.13342C18.5711 6.65767 18.4471 6.18863 18.2038 5.77933C17.9611 5.37054 17.6089 5.03716 17.1868 4.81713C16.915 4.6761 16.6204 4.58507 16.3165 4.54846C16.8605 3.68802 17.5852 2.95651 18.4409 2.40491C15.1459 2.82709 13.732 5.90472 13.732 5.91101C13.5361 6.28812 13.4371 6.70853 13.4442 7.13337C11.1271 7.80503 9.16474 9.35632 7.97631 11.4557C6.78788 13.555 6.46787 16.0359 7.08462 18.3682C6.67136 18.6052 6.33263 18.9533 6.10681 19.3728C5.88053 19.7919 5.77611 20.2663 5.80467 20.7416C5.8252 21.0459 5.89661 21.3445 6.01622 21.6248C4.99913 21.5993 3.99948 21.3548 3.08594 20.908C5.14598 23.5121 8.51143 23.1408 8.51772 23.1408C8.94437 23.1154 9.35808 22.9833 9.72043 22.757C11.4552 24.3731 13.7459 25.2576 16.1166 25.2267C18.4873 25.1955 20.7544 24.2516 22.4458 22.5905C22.9912 22.915 23.6374 23.0248 24.2591 22.8998C24.8812 22.7744 25.4341 22.4227 25.8113 21.9126C26.2892 22.811 26.5686 23.8013 26.6302 24.8171C27.9097 21.7462 25.901 18.9948 25.901 18.9885C25.6618 18.6319 25.3391 18.3401 24.9602 18.138ZM16.0032 24.6636C13.84 24.6658 11.7554 23.8554 10.1617 22.3924C10.6567 21.9006 10.9294 21.2284 10.9169 20.5314C10.9039 19.8338 10.6076 19.172 10.0952 18.698C9.58335 18.2245 8.90008 17.9808 8.20384 18.0228C7.99988 18.0353 7.79816 18.0719 7.60269 18.1312C7.04439 15.9623 7.3483 13.6617 8.45064 11.7122C9.55297 9.76288 11.368 8.31637 13.5142 7.67691C13.6798 8.35661 14.1162 8.93857 14.7218 9.28806C15.3274 9.63795 16.05 9.72409 16.7207 9.52728C17.3919 9.33046 17.9534 8.86767 18.2743 8.24642C18.3653 8.06479 18.4363 7.87378 18.4854 7.67696C20.5932 8.30711 22.3819 9.71609 23.4883 11.6172C24.5951 13.5189 24.9361 15.77 24.442 17.9139C23.7739 17.7295 23.059 17.8242 22.4618 18.1767C21.8647 18.5288 21.4358 19.1081 21.2739 19.782C21.1119 20.4564 21.2297 21.1673 21.6014 21.7524C21.7121 21.9215 21.8433 22.076 21.9915 22.2134C20.3885 23.775 18.2414 24.6538 16.0032 24.6636Z" fill="black"/>
<path d="M31.4095 11.7274C30.0813 6.93566 26.6007 3.03414 21.9909 1.1705C17.3807 -0.693148 12.1668 -0.307211 7.88109 2.21525C3.59626 4.73766 0.728021 9.10909 0.120098 14.0447C-0.487746 18.9797 1.23403 23.9166 4.77886 27.4039C8.32415 30.8908 13.2887 32.5304 18.2135 31.8409C23.1379 31.1514 27.4615 28.2109 29.9115 23.8845C32.0184 20.1964 32.5576 15.8174 31.4088 11.7283L31.4095 11.7274ZM29.0933 23.4163C26.7882 27.4869 22.7208 30.2539 18.0878 30.9032C13.4553 31.5526 8.78355 30.0102 5.44837 26.7305C2.11284 23.4502 0.492782 18.8053 1.06449 14.1618C1.63574 9.51862 4.33443 5.40562 8.36619 3.03277C12.3975 0.659457 17.3036 0.296142 21.6409 2.05004C25.9779 3.80354 29.2528 7.47462 30.5015 11.9827C31.5646 15.8302 31.0585 19.9418 29.094 23.4157L29.0933 23.4163Z" fill="black"/>
</g>
<defs>
<clipPath id="clip0_1951_178062">
<rect y="0.00439453" width="32" height="31.9912" rx="15.9956" fill="white"/>
</clipPath>
</defs>
</svg>
